<?xml version="1.0" standalone="no"?>
<!DOCTYPE svg PUBLIC "-//W3C//DTD SVG 20010904//EN"
 "http://www.w3.org/TR/2001/REC-SVG-20010904/DTD/svg10.dtd">
<svg version="1.0" xmlns="http://www.w3.org/2000/svg"
 width="1844.000000pt" height="1202.000000pt" viewBox="0 0 1844.000000 1202.000000"
 preserveAspectRatio="xMidYMid meet">

<g transform="translate(0.000000,1202.000000) scale(0.100000,-0.100000)"
fill="#000000" stroke="none">
<path d="M3042 10800 c-25 -23 -29 -75 -9 -101 36 -47 114 -48 144 -3 22 34
21 79 -2 104 -25 28 -103 28 -133 0z"/>
<path d="M6010 10511 c0 -340 6 -401 47 -443 31 -33 92 -52 134 -43 38 8 42
16 34 69 -6 36 -12 46 -29 48 -21 3 -21 4 -24 341 l-2 337 -80 0 -80 0 0 -309z"/>
<path d="M7462 10478 c3 -308 5 -347 22 -380 25 -52 90 -83 153 -73 l45 7 -6
36 c-3 20 -6 43 -6 50 0 7 -11 17 -25 22 l-25 10 0 335 0 335 -81 0 -81 0 4
-342z"/>
<path d="M5013 10762 c-108 -39 -171 -101 -214 -211 -18 -44 -22 -77 -22 -156
0 -133 24 -197 103 -277 48 -48 68 -60 129 -78 104 -32 196 -14 288 56 37 28
36 33 -16 93 l-29 33 -37 -27 c-74 -57 -188 -41 -239 34 -58 84 -60 248 -3
333 54 79 157 103 229 54 l36 -24 37 45 c46 55 42 66 -39 107 -73 38 -150 44
-223 18z"/>
<path d="M579 10668 c-2 -111 -1 -525 0 -585 l1 -43 75 0 75 0 0 140 0 140
125 0 125 0 0 60 0 60 -125 0 -125 0 0 90 0 90 35 1 c19 1 40 3 45 4 6 1 55 3
110 4 l100 1 0 65 0 65 -220 0 -220 0 -1 -92z"/>
<path d="M2656 10698 c-3 -24 -7 -59 -8 -78 -3 -32 -6 -35 -45 -43 l-43 -8 0
-55 0 -54 34 0 34 0 4 -152 c3 -120 7 -160 21 -185 47 -88 137 -122 239 -91
36 11 38 13 33 42 -13 65 -14 66 -56 66 -26 0 -46 7 -59 20 -18 18 -20 33 -20
159 l0 139 65 7 65 7 0 54 0 54 -65 0 -65 0 0 80 0 80 -64 0 -65 0 -5 -42z"/>
<path d="M8385 10693 c-14 -115 -12 -110 -56 -117 l-40 -6 3 -53 c3 -51 4 -52
36 -55 l32 -3 0 -124 c0 -207 23 -262 126 -301 40 -15 54 -16 102 -6 31 6 60
16 65 21 5 5 4 26 -3 50 -10 39 -12 41 -50 41 -27 0 -47 7 -60 20 -18 18 -20
33 -20 160 l0 139 63 3 62 3 0 55 0 55 -62 3 -63 3 0 79 0 80 -64 0 -65 0 -6
-47z"/>
<path d="M1364 10581 c-23 -10 -54 -35 -69 -55 -15 -20 -31 -36 -36 -36 -4 0
-9 19 -11 43 l-3 42 -62 3 -63 3 0 -271 0 -270 69 0 c39 0 72 4 75 8 3 5 6 75
7 157 0 81 6 161 11 177 16 44 67 78 124 81 l48 2 11 55 c6 31 10 61 7 68 -6
18 -61 14 -108 -7z"/>
<path d="M1665 10589 c-39 -9 -145 -49 -145 -54 0 -5 52 -95 55 -95 1 0 22 9
46 20 44 19 124 26 145 12 18 -12 46 -74 37 -82 -4 -5 -44 -16 -88 -25 -156
-32 -221 -92 -211 -194 6 -66 28 -99 87 -129 56 -29 103 -25 171 17 59 37 66
38 70 9 3 -21 8 -23 63 -23 l60 0 3 170 c4 244 -16 314 -102 359 -45 23 -131
30 -191 15z m139 -353 c-4 -97 -154 -138 -154 -42 0 19 7 39 15 46 23 19 87
40 115 37 22 -2 25 -6 24 -41z"/>
<path d="M2246 10575 c-116 -48 -170 -132 -170 -271 -1 -70 3 -88 29 -140 36
-71 97 -116 181 -135 63 -14 134 -2 192 33 l32 20 -21 36 c-33 54 -34 55 -67
38 -36 -18 -81 -21 -114 -5 -94 42 -104 255 -14 310 35 21 87 25 118 8 18 -10
25 -8 40 12 11 13 26 32 34 42 19 23 11 35 -40 58 -57 26 -128 24 -200 -6z"/>
<path d="M3489 10586 c-120 -43 -182 -135 -183 -271 0 -128 46 -209 149 -263
104 -54 237 -22 312 76 83 110 74 292 -20 391 -67 70 -173 98 -258 67z m136
-130 c13 -13 28 -41 34 -62 23 -84 8 -188 -34 -230 -31 -31 -94 -33 -119 -5
-59 65 -60 237 -3 299 29 31 90 30 122 -2z"/>
<path d="M4205 10588 c-16 -6 -50 -26 -75 -45 -48 -37 -46 -37 -64 20 -5 15
-15 18 -63 15 l-58 -3 0 -265 0 -265 75 0 75 0 5 180 c5 171 6 182 29 213 14
17 25 32 25 32 1 0 16 4 34 9 27 8 36 6 57 -12 24 -22 25 -24 27 -222 l3 -200
60 -2 c102 -2 95 -17 95 187 0 99 -5 202 -11 230 -23 109 -113 163 -214 128z"/>
<path d="M5575 10589 c-39 -9 -145 -49 -145 -54 0 -5 52 -95 55 -95 1 0 23 9
49 21 31 13 62 19 93 17 41 -3 50 -7 70 -37 13 -19 22 -39 20 -45 -2 -6 -45
-20 -97 -33 -153 -37 -210 -86 -210 -177 0 -77 44 -134 121 -158 46 -13 100 1
151 39 40 29 51 29 63 1 9 -20 18 -23 65 -23 l55 0 3 170 c4 244 -16 314 -102
359 -45 23 -131 30 -191 15z m139 -353 c-4 -97 -154 -138 -154 -42 0 19 6 39
14 45 22 18 89 40 116 38 22 -2 25 -6 24 -41z"/>
<path d="M6488 10584 c-68 -21 -142 -91 -167 -160 -38 -101 -19 -238 45 -314
40 -47 128 -85 199 -84 60 0 165 36 165 56 0 16 -45 88 -55 88 -5 -1 -19 -7
-29 -15 -26 -20 -96 -19 -124 1 -38 26 -62 87 -62 154 0 111 49 176 125 167
22 -2 49 -8 60 -11 17 -6 27 2 53 38 l33 45 -50 26 c-57 29 -118 31 -193 9z"/>
<path d="M7880 10576 c-91 -33 -100 -37 -100 -46 0 -7 34 -73 46 -89 2 -2 20
5 41 15 21 10 64 20 95 22 56 4 57 4 77 -29 35 -57 30 -64 -61 -83 -158 -34
-218 -84 -218 -181 0 -59 25 -106 72 -135 61 -37 93 -36 171 4 l72 36 16 -21
c12 -16 28 -22 66 -24 l51 -2 5 51 c8 73 -2 345 -13 382 -13 39 -64 88 -112
108 -53 23 -132 19 -208 -8z m180 -335 c0 -82 -106 -137 -146 -76 -14 21 -15
31 -5 51 12 28 81 63 124 64 25 0 27 -3 27 -39z"/>
<path d="M8893 10587 c-60 -22 -117 -72 -148 -128 -27 -49 -30 -63 -30 -145 0
-81 3 -97 30 -150 55 -107 176 -162 286 -130 81 23 132 64 165 133 26 51 29
69 29 148 0 78 -4 97 -28 142 -58 111 -196 170 -304 130z m141 -137 c35 -42
49 -102 41 -169 -12 -94 -47 -141 -105 -141 -66 0 -100 58 -100 171 0 113 33
169 100 169 30 0 43 -6 64 -30z"/>
<path d="M9579 10570 c-25 -16 -51 -41 -59 -55 -22 -41 -31 -32 -42 40 -3 17
-11 20 -61 20 l-57 0 -3 -265 -2 -265 54 -3 c107 -6 101 -16 101 177 l0 169
40 36 c34 31 47 36 89 36 48 0 48 0 54 38 4 20 9 52 13 70 l7 32 -45 0 c-33 0
-57 -8 -89 -30z"/>
<path d="M3032 10313 l3 -268 70 0 70 0 3 268 2 267 -75 0 -75 0 2 -267z"/>
<path d="M6840 10373 c1 -267 12 -303 106 -339 57 -22 98 -13 171 36 32 21 61
36 65 34 5 -3 8 -16 8 -30 0 -13 3 -24 8 -25 51 -7 102 -8 105 -2 7 11 11 192
9 376 l-2 157 -74 0 -74 0 -1 -182 c-2 -178 -2 -183 -27 -215 -41 -53 -115
-57 -134 -7 -6 14 -10 111 -10 215 l0 189 -75 0 -75 0 0 -207z"/>
<path d="M889 9196 c-7 -7 2 -256 10 -256 4 0 8 59 8 130 2 115 -2 141 -18
126z"/>
<path d="M3390 9075 c0 -77 4 -125 10 -125 6 0 10 26 10 59 0 82 5 91 51 91
l39 0 0 -80 c0 -47 4 -80 10 -80 6 0 10 33 10 79 0 93 -9 106 -70 96 l-40 -7
0 46 c0 25 -4 46 -10 46 -6 0 -10 -48 -10 -125z"/>
<path d="M3919 9077 c-4 -117 0 -152 15 -129 8 13 7 90 -2 177 l-8 80 -5 -128z"/>
<path d="M552 9168 c-26 -13 -38 -48 -24 -75 6 -10 27 -24 49 -32 50 -18 63
-29 63 -55 0 -43 -45 -59 -104 -36 -14 5 -26 6 -26 1 0 -11 55 -31 85 -31 29
0 65 40 65 72 0 30 -16 46 -67 63 -77 27 -70 80 11 80 47 0 59 8 30 19 -23 9
-56 6 -82 -6z"/>
<path d="M1500 9059 c0 -77 4 -118 10 -114 6 3 10 26 10 51 l0 44 39 0 c22 0
43 5 46 10 4 6 -12 10 -39 10 l-46 0 0 50 0 50 50 0 c28 0 50 5 50 10 0 6 -27
10 -60 10 l-60 0 0 -121z"/>
<path d="M2010 9156 c0 -14 -4 -27 -8 -30 -9 -6 9 -154 22 -174 9 -14 42 -16
51 -2 3 6 -5 10 -18 10 -30 0 -37 16 -37 86 0 50 2 54 28 61 l27 7 -25 6 c-20
5 -24 12 -22 33 1 15 -2 27 -8 27 -5 0 -10 -11 -10 -24z"/>
<path d="M3232 9170 c-28 -12 -52 -66 -52 -121 0 -34 6 -47 35 -76 31 -31 40
-35 72 -30 36 6 61 22 51 32 -3 3 -17 1 -31 -6 -61 -28 -114 26 -104 108 7 65
31 86 89 81 40 -4 46 -3 37 8 -13 16 -63 17 -97 4z"/>
<path d="M1309 9143 c-2 -52 2 -158 7 -175 7 -22 51 -35 67 -19 8 8 3 11 -21
11 l-32 0 0 70 c0 63 2 70 20 70 11 0 20 5 20 10 0 6 -9 10 -20 10 -15 0 -20
7 -20 25 0 34 -20 32 -21 -2z"/>
<path d="M2826 9155 c-3 -8 -1 -15 3 -15 5 0 11 7 15 15 3 8 1 15 -3 15 -5 0
-11 -7 -15 -15z"/>
<path d="M2819 9126 c-9 -10 9 -157 21 -172 13 -15 50 -20 50 -6 0 4 -10 12
-22 17 -20 9 -23 19 -26 73 -3 56 -1 62 17 62 11 0 23 5 26 10 3 6 -3 10 -14
10 -10 0 -26 2 -33 5 -8 3 -16 3 -19 1z"/>
<path d="M726 9099 c-21 -17 -26 -29 -26 -65 0 -67 59 -112 113 -86 20 10 18
11 -16 11 -51 1 -77 16 -77 46 0 22 3 23 34 18 19 -3 46 -3 60 1 22 5 25 10
19 39 -10 58 -58 74 -107 36z m89 -29 c0 -23 -4 -25 -47 -28 -41 -3 -48 0 -48
15 0 29 22 44 60 41 30 -3 35 -7 35 -28z"/>
<path d="M1002 9113 c-7 -3 -19 -18 -28 -34 -31 -61 12 -139 77 -139 15 0 31
5 34 10 4 6 -9 10 -33 10 -26 0 -45 7 -56 19 -29 32 -15 46 45 46 l54 0 -3 35
c-4 49 -42 72 -90 53z m76 -45 c3 -27 2 -28 -42 -28 -51 0 -62 10 -46 40 9 17
19 20 48 18 32 -3 37 -7 40 -30z"/>
<path d="M1165 9095 c-64 -63 -2 -180 79 -149 29 11 17 20 -23 16 -33 -3 -41
0 -51 18 -15 27 -7 99 12 111 7 5 33 9 58 10 34 0 40 2 25 9 -38 16 -75 11
-100 -15z"/>
<path d="M1680 9102 c-15 -12 -24 -33 -27 -64 -5 -40 -2 -50 20 -72 27 -27 80
-36 92 -16 4 6 -7 10 -25 10 -53 0 -70 15 -69 63 1 68 7 77 43 77 36 0 56 -15
56 -42 0 -19 -8 -22 -49 -18 -15 1 -21 -2 -16 -9 3 -6 23 -10 43 -8 35 2 37 4
34 32 -7 60 -57 83 -102 47z"/>
<path d="M1850 9111 c-10 -7 -1 -11 30 -13 57 -4 69 -32 17 -42 -39 -7 -77
-39 -77 -65 0 -10 9 -26 19 -35 16 -14 27 -16 63 -9 l43 9 -1 66 c0 39 -6 73
-13 82 -15 18 -58 21 -81 7z m80 -96 c0 -42 -10 -55 -45 -55 -18 0 -38 7 -45
15 -11 13 -9 20 10 40 21 22 56 36 73 27 4 -2 7 -14 7 -27z"/>
<path d="M2122 9040 c4 -90 13 -105 63 -94 17 3 36 6 43 7 8 0 12 20 12 63 0
34 3 69 6 78 3 9 1 16 -5 16 -7 0 -11 -24 -11 -64 0 -71 -12 -89 -57 -84 -28
3 -28 4 -31 81 -2 46 -7 77 -13 77 -7 0 -10 -28 -7 -80z"/>
<path d="M2360 9110 c0 -5 6 -10 14 -10 8 0 18 5 21 10 3 6 -3 10 -14 10 -12
0 -21 -4 -21 -10z"/>
<path d="M2447 9100 c-22 -18 -27 -30 -27 -66 0 -30 6 -50 20 -64 24 -24 64
-35 87 -24 13 5 7 9 -25 14 -44 7 -62 21 -62 52 0 14 7 16 48 11 63 -7 78 9
54 58 -21 42 -56 49 -95 19z m83 -15 c19 -22 3 -58 -23 -51 -12 3 -32 6 -44 6
-25 0 -31 28 -11 48 17 17 63 15 78 -3z"/>
<path d="M2606 9104 c-25 -25 -19 -48 21 -69 71 -39 68 -81 -5 -71 -29 4 -32
3 -22 -9 18 -21 57 -18 80 5 32 32 25 55 -25 81 -63 33 -61 59 3 59 34 0 43 3
32 10 -23 15 -67 12 -84 -6z"/>
<path d="M2945 9100 c-9 -10 -19 -38 -22 -62 -4 -36 0 -47 22 -70 33 -36 59
-35 97 2 27 27 30 36 25 71 -3 22 -13 49 -23 60 -23 25 -76 25 -99 -1z m95
-19 c38 -72 -32 -158 -85 -104 -20 20 -16 100 6 114 25 16 68 10 79 -10z"/>
<path d="M3595 9095 c-31 -30 -34 -92 -7 -125 19 -24 92 -34 99 -14 2 7 -7 9
-26 6 -40 -6 -71 13 -71 43 0 24 2 25 58 22 l57 -2 -3 30 c-7 64 -63 85 -107
40z m83 -7 c7 -7 12 -20 12 -30 0 -15 -9 -18 -50 -18 -41 0 -50 3 -50 18 0 25
20 42 50 42 14 0 31 -5 38 -12z"/>
<path d="M3772 9100 c-24 -23 -31 -95 -12 -130 11 -21 53 -34 81 -25 25 8 25
25 -1 18 -11 -3 -31 -2 -44 1 -32 8 -44 61 -24 103 12 24 19 28 55 28 32 0 39
3 31 13 -16 19 -62 14 -86 -8z"/>
<path d="M4004 9098 c-48 -55 -48 -53 -9 -107 20 -28 41 -51 46 -51 15 0 11
10 -16 42 -40 47 -42 74 -9 109 15 16 23 29 18 29 -6 0 -19 -10 -30 -22z"/>
<path d="M2318 9033 c-2 -43 0 -82 4 -87 4 -6 8 22 8 61 0 39 3 78 6 87 3 9 2
16 -4 16 -6 0 -12 -33 -14 -77z"/>
<path d="M1154 8189 c-3 -6 -2 -15 2 -19 12 -12 38 5 30 19 -9 14 -23 14 -32
0z"/>
<path d="M1395 8191 c-3 -5 -3 -33 -1 -63 3 -29 5 -89 6 -132 0 -105 18 -88
20 19 2 141 0 185 -9 185 -6 0 -12 -4 -16 -9z"/>
<path d="M2470 8190 c-12 -8 -12 -10 2 -15 20 -8 41 2 33 16 -8 11 -16 11 -35
-1z"/>
<path d="M3977 8194 c-13 -13 -7 -24 14 -24 11 0 19 5 17 12 -5 14 -22 21 -31
12z"/>
<path d="M857 8163 c-3 -10 -23 -67 -46 -128 -22 -60 -38 -111 -36 -113 9 -9
25 11 33 41 8 31 9 32 68 32 l59 0 5 -34 c5 -33 30 -57 30 -29 0 14 -45 149
-71 216 -15 35 -34 42 -42 15z m44 -75 c10 -29 18 -56 19 -60 0 -5 -20 -8 -45
-8 -25 0 -45 3 -45 6 0 16 43 124 48 119 3 -2 13 -28 23 -57z"/>
<path d="M1270 8160 c0 -19 3 -21 12 -12 9 9 9 15 0 24 -9 9 -12 7 -12 -12z"/>
<path d="M2349 8178 c0 -2 -3 -14 -5 -28 -2 -13 -9 -27 -15 -31 -8 -5 -8 -8 0
-10 6 -2 14 -40 17 -84 4 -44 11 -86 17 -92 11 -15 57 -17 57 -3 0 6 -9 10
-20 10 -25 0 -27 6 -34 93 -5 66 -5 67 19 67 13 0 27 5 30 10 4 6 -7 10 -25
10 -29 0 -32 2 -26 24 3 14 2 28 -4 31 -5 3 -10 5 -11 3z"/>
<path d="M2871 8164 c-69 -49 -65 -191 8 -228 39 -20 66 -20 102 1 40 24 55
66 51 151 -4 72 -101 118 -161 76z m94 -10 c39 -15 56 -98 34 -163 -20 -57
-83 -69 -124 -25 -52 57 -21 194 44 194 16 0 37 -3 46 -6z"/>
<path d="M3850 8155 c0 -14 -7 -28 -15 -31 -14 -6 -14 -8 -1 -18 10 -7 15 -36
18 -89 4 -82 12 -97 56 -97 12 0 22 5 22 10 0 6 -11 10 -24 10 -30 0 -36 16
-36 96 l0 64 30 0 c17 0 30 5 30 10 0 6 -13 10 -30 10 -27 0 -30 3 -30 30 0
17 -4 30 -10 30 -5 0 -10 -11 -10 -25z"/>
<path d="M1246 8121 c-4 -6 -2 -11 3 -11 7 0 11 -27 11 -67 0 -82 15 -117 53
-121 34 -4 36 14 2 22 -21 5 -25 12 -25 44 0 20 -3 54 -6 75 -6 35 -5 37 19
37 14 0 29 5 32 10 3 6 -4 10 -17 10 -13 0 -33 3 -44 6 -12 3 -25 1 -28 -5z"/>
<path d="M1025 8022 c1 -60 7 -98 14 -100 18 -6 15 184 -3 191 -12 5 -14 -11
-11 -91z"/>
<path d="M1075 8110 c-17 -7 -15 -9 12 -9 17 -1 35 4 38 9 7 12 -22 12 -50 0z"/>
<path d="M1160 8019 c0 -67 4 -99 11 -97 6 2 10 7 10 11 -1 4 -1 48 -1 97 0
53 -4 90 -10 90 -6 0 -10 -40 -10 -101z"/>
<path d="M1451 8111 c-11 -7 -4 -10 25 -13 l39 -3 3 -87 c3 -107 22 -118 22
-14 0 97 -11 126 -47 126 -16 0 -34 -4 -42 -9z"/>
<path d="M1640 8107 c-76 -64 -37 -187 59 -187 23 0 41 5 41 10 0 6 -18 10
-39 10 -31 0 -44 6 -60 26 -34 43 -27 51 45 57 37 4 69 9 72 11 2 3 -4 22 -14
43 -16 32 -24 38 -54 40 -19 2 -42 -3 -50 -10z m85 -23 c25 -25 13 -39 -40
-42 -57 -4 -70 6 -49 36 18 26 65 29 89 6z"/>
<path d="M1810 8019 c0 -126 17 -122 22 5 2 65 0 90 -9 93 -10 4 -13 -20 -13
-98z"/>
<path d="M1861 8111 c-11 -7 -4 -10 25 -13 l39 -3 -1 -88 c-1 -114 19 -113 26
1 4 70 2 84 -13 97 -19 17 -55 19 -76 6z"/>
<path d="M1980 8110 c-11 -7 -5 -10 23 -10 l37 0 0 -90 c0 -53 4 -90 10 -90
12 0 13 4 10 105 -1 47 -7 83 -13 87 -17 11 -49 9 -67 -2z"/>
<path d="M2152 8107 c-9 -10 0 -13 41 -12 49 0 52 -1 55 -27 3 -22 -1 -28 -16
-28 -34 0 -90 -29 -97 -49 -14 -45 31 -80 80 -61 14 5 31 7 37 4 18 -12 23 13
18 90 -3 53 -10 80 -20 86 -22 14 -86 12 -98 -3z m98 -117 c0 -36 -29 -54 -71
-45 -19 4 -29 13 -29 25 0 22 43 49 78 50 18 0 22 -5 22 -30z"/>
<path d="M2477 8113 c-9 -14 6 -193 14 -187 12 7 11 194 0 194 -6 0 -12 -3
-14 -7z"/>
<path d="M2593 8105 c-21 -15 -43 -69 -43 -106 0 -9 13 -31 29 -48 32 -35 74
-41 107 -16 17 13 15 14 -27 9 -41 -6 -48 -4 -63 17 -21 30 -21 88 0 118 14
20 23 23 61 18 36 -4 42 -2 32 9 -15 19 -69 18 -96 -1z"/>
<path d="M3100 7979 c0 -95 3 -140 10 -133 15 15 17 267 2 272 -9 3 -12 -31
-12 -139z"/>
<path d="M3150 8110 c-11 -7 -4 -10 26 -10 47 0 54 -9 54 -74 0 -53 -21 -84
-63 -88 -25 -3 -28 -6 -14 -12 28 -13 66 2 88 37 24 38 20 109 -8 139 -17 19
-59 24 -83 8z"/>
<path d="M3329 8091 c-33 -34 -38 -75 -14 -121 19 -36 43 -50 89 -50 53 0 53
18 -1 22 -41 3 -49 7 -66 36 -11 18 -17 35 -14 39 3 3 36 8 72 11 66 5 66 5
60 31 -17 66 -76 81 -126 32z m101 -6 c23 -28 4 -45 -49 -45 -58 0 -70 11 -41
40 23 23 72 26 90 5z"/>
<path d="M3520 8021 c0 -121 19 -140 22 -21 1 44 2 88 2 97 1 9 -5 18 -11 21
-10 3 -13 -21 -13 -97z"/>
<path d="M3570 8110 c-11 -7 -7 -10 18 -10 17 0 32 5 32 10 0 13 -30 13 -50 0z"/>
<path d="M3663 8113 c-27 -10 -11 -19 35 -19 43 1 47 -1 50 -25 3 -23 -2 -27
-29 -33 -18 -3 -43 -13 -56 -21 -46 -31 -17 -104 36 -90 14 4 39 6 55 6 l29 0
-6 80 c-3 44 -11 86 -17 94 -12 14 -71 19 -97 8z m95 -119 c4 -31 -25 -56 -62
-52 -37 4 -46 30 -20 59 25 27 78 22 82 -7z"/>
<path d="M3980 8020 c0 -60 4 -100 10 -100 6 0 10 40 10 100 0 60 -4 100 -10
100 -6 0 -10 -40 -10 -100z"/>
<path d="M4096 8101 c-27 -30 -37 -89 -21 -127 25 -61 80 -71 127 -24 28 28
30 35 26 82 -4 38 -12 57 -28 70 -29 24 -82 23 -104 -1z m94 -16 c6 -8 14 -31
17 -52 6 -44 -25 -93 -58 -93 -51 0 -79 88 -43 138 18 26 65 30 84 7z"/>
<path d="M4298 8041 c-1 -44 -2 -88 -2 -98 -1 -9 4 -18 11 -20 17 -6 23 175 6
189 -10 8 -13 -7 -15 -71z"/>
<path d="M4350 8110 c-11 -7 -6 -10 22 -10 34 0 37 -2 43 -39 4 -22 5 -61 4
-87 -2 -31 1 -49 9 -52 15 -5 17 150 2 179 -12 21 -54 26 -80 9z"/>
<path d="M17500 8083 c0 -14 96 -103 110 -102 8 1 37 25 64 55 l49 54 -111 0
c-62 0 -112 -3 -112 -7z"/>
<path d="M2842 6964 c1 -9 9 -19 16 -22 9 -3 13 2 10 14 -1 9 -9 19 -16 22 -9
3 -13 -2 -10 -14z"/>
<path d="M4762 6964 c1 -9 9 -19 16 -22 9 -3 13 2 10 14 -1 9 -9 19 -16 22 -9
3 -13 -2 -10 -14z"/>
<path d="M530 6845 c0 -102 2 -115 18 -116 81 -5 102 -4 102 3 0 4 -22 8 -50
8 l-50 0 0 50 0 50 45 0 c25 0 45 5 45 10 0 6 -20 10 -45 10 l-45 0 0 40 0 40
49 0 c28 0 53 5 56 10 4 6 -18 10 -59 10 l-66 0 0 -115z"/>
<path d="M2120 6839 c0 -77 4 -118 10 -114 6 3 10 26 10 49 l0 43 53 9 52 8
-52 4 -53 3 0 50 0 49 49 0 c28 0 53 5 56 10 4 6 -18 10 -59 10 l-66 0 0 -121z"/>
<path d="M2735 6949 c-8 -13 -7 -161 1 -195 7 -26 44 -42 66 -28 9 6 4 10 -17
14 -29 5 -30 6 -33 73 -3 66 -3 67 23 67 15 0 24 4 20 10 -3 6 -17 10 -30 10
-22 0 -24 3 -18 30 6 30 0 39 -12 19z"/>
<path d="M3920 6958 c0 -2 -1 -54 -3 -116 l-2 -112 33 -6 c18 -4 48 -2 65 4
31 10 30 10 -20 11 l-53 1 0 50 0 50 46 0 c27 0 43 4 39 10 -3 6 -24 10 -46
10 -39 0 -39 0 -39 40 0 34 4 41 25 46 14 3 37 4 50 2 14 -3 25 -1 25 3 0 8
-120 14 -120 7z"/>
<path d="M4648 6926 c-2 -18 -1 -68 3 -111 6 -78 15 -95 52 -95 25 0 21 18 -5
22 -21 3 -23 9 -26 71 -3 62 -1 67 18 67 11 0 20 5 20 10 0 6 -12 10 -26 10
-23 0 -25 3 -19 30 4 17 2 30 -3 30 -5 0 -12 -15 -14 -34z"/>
<path d="M910 6934 c0 -8 5 -12 10 -9 6 3 10 10 10 16 0 5 -4 9 -10 9 -5 0
-10 -7 -10 -16z"/>
<path d="M896 6903 c-6 -6 5 -107 16 -141 6 -21 18 -34 34 -38 36 -9 40 2 7
18 -26 12 -28 18 -31 76 -3 61 -2 62 23 62 38 0 30 17 -10 22 -20 2 -37 3 -39
1z"/>
<path d="M1038 6886 c-19 -14 -38 -57 -38 -87 0 -32 53 -79 89 -79 16 0 33 5
36 10 4 6 -10 10 -34 10 -32 0 -44 5 -57 25 -19 30 -14 38 24 41 15 1 37 2 50
3 17 1 22 7 22 30 0 52 -51 79 -92 47z m77 -36 c0 -23 -4 -25 -47 -28 -53 -3
-52 -4 -38 33 9 23 15 26 47 23 33 -3 38 -6 38 -28z"/>
<path d="M1220 6891 c-24 -7 -25 -9 -23 -86 2 -105 5 -107 12 -10 l6 80 33 3
c17 2 32 7 32 13 0 10 -23 10 -60 0z"/>
<path d="M1360 6897 c0 -10 52 -143 60 -152 15 -19 -13 -79 -40 -85 -17 -4
-21 -8 -12 -14 30 -18 59 21 96 134 21 62 35 115 32 118 -8 8 -9 5 -32 -68
-11 -36 -24 -64 -30 -64 -5 1 -19 30 -31 65 -12 35 -26 65 -32 67 -6 2 -11 2
-11 -1z"/>
<path d="M1563 6888 c-42 -20 -42 -123 0 -153 33 -23 63 -18 91 16 35 41 35
88 0 123 -28 27 -55 32 -91 14z m79 -25 c23 -20 24 -80 1 -105 -51 -56 -121
31 -83 103 13 24 57 25 82 2z"/>
<path d="M1730 6826 c0 -78 16 -113 47 -102 8 3 20 7 26 7 7 1 -1 4 -18 8 -30
6 -30 6 -33 84 -4 99 -22 101 -22 3z"/>
<path d="M1840 6833 c0 -40 -5 -74 -12 -81 -9 -9 -7 -12 10 -12 21 0 22 4 22
74 0 41 -4 78 -10 81 -6 4 -10 -19 -10 -62z"/>
<path d="M1953 6893 l-33 -4 0 -79 c0 -104 18 -115 22 -13 l3 78 33 3 c17 2
32 7 32 13 0 5 -6 8 -12 7 -7 0 -28 -3 -45 -5z"/>
<path d="M2358 6893 l-78 -4 0 -84 c0 -107 18 -113 22 -7 l3 77 93 3 c83 2 93
1 90 -14 -2 -9 -23 -24 -47 -33 -52 -19 -66 -38 -57 -74 6 -26 10 -27 68 -27
l61 0 -7 77 c-6 79 -15 94 -51 91 -11 -1 -55 -4 -97 -5z m132 -102 c0 -36 -20
-53 -57 -49 -21 2 -29 9 -31 27 -5 30 20 51 60 51 24 0 28 -4 28 -29z"/>
<path d="M2590 6882 c-15 -12 -24 -33 -27 -64 -5 -40 -2 -50 20 -72 27 -27 61
-33 87 -16 11 7 6 10 -22 10 -52 0 -71 23 -65 78 6 51 17 61 72 63 35 1 37 2
15 9 -40 13 -56 11 -80 -8z"/>
<path d="M2848 6832 c-1 -40 -2 -79 -2 -87 -1 -8 3 -15 9 -15 10 0 11 158 1
168 -3 3 -7 -27 -8 -66z"/>
<path d="M2941 6874 c-45 -57 -11 -154 53 -154 31 0 76 52 76 89 0 26 -23 68
-44 83 -24 17 -65 8 -85 -18z m93 -16 c46 -66 -19 -153 -76 -101 -20 18 -24
73 -8 104 15 27 64 25 84 -3z"/>
<path d="M3153 6893 l-33 -4 0 -85 c0 -49 4 -84 10 -84 6 0 10 28 10 64 0 88
4 96 51 96 l39 0 0 -74 c0 -41 5 -78 10 -81 6 -4 10 21 10 69 0 78 -14 108
-48 104 -9 0 -32 -3 -49 -5z"/>
<path d="M3315 6884 c-24 -25 -14 -46 33 -72 33 -18 42 -29 40 -46 -3 -18 -10
-21 -46 -21 -46 0 -56 -11 -18 -21 38 -9 59 -1 75 28 14 24 14 28 -3 47 -10
11 -34 25 -53 32 -50 16 -41 43 17 49 33 4 40 7 27 13 -29 11 -54 8 -72 -9z"/>
<path d="M3540 6882 c-13 -10 -23 -33 -27 -58 -4 -36 -1 -46 24 -74 25 -27 34
-32 57 -26 42 10 66 41 66 85 0 76 -66 117 -120 73z m90 -21 c15 -30 12 -82
-7 -103 -51 -56 -116 21 -81 97 14 32 71 36 88 6z"/>
<path d="M3748 6893 l-28 -4 0 -85 c0 -54 4 -83 10 -79 6 3 10 40 10 81 l0 74
30 0 c17 0 30 5 30 10 0 10 -3 10 -52 3z"/>
<path d="M4110 6882 c-16 -13 -24 -32 -27 -69 -5 -45 -3 -52 22 -71 29 -23 60
-28 70 -12 4 6 -6 10 -22 10 -16 0 -34 5 -41 12 -14 14 -16 67 -2 102 8 22 16
26 50 26 l41 0 -1 -67 c-3 -122 0 -163 10 -163 6 0 10 46 10 119 l0 119 -31 6
c-46 9 -55 8 -79 -12z"/>
<path d="M4280 6826 c0 -67 2 -77 23 -90 18 -12 30 -13 65 -4 l42 10 0 79 c0
102 -18 103 -22 2 -3 -77 -3 -78 -31 -81 -47 -6 -59 13 -56 87 2 43 -2 66 -9
69 -9 3 -12 -19 -12 -72z"/>
<path d="M4493 6893 c-28 -10 -10 -18 32 -15 39 4 45 2 45 -16 0 -15 -9 -21
-34 -26 -52 -10 -80 -37 -72 -69 8 -35 33 -47 85 -40 l43 6 -4 73 c-2 40 -6
76 -10 80 -9 8 -68 13 -85 7z m77 -97 c0 -52 -25 -69 -74 -50 -38 15 -2 74 46
74 23 0 28 -4 28 -24z"/>
<path d="M4768 6823 c-4 -83 -1 -106 12 -98 11 7 10 175 0 175 -5 0 -10 -35
-12 -77z"/>
<path d="M4861 6874 c-43 -55 -12 -154 49 -154 32 0 80 53 80 87 0 27 -22 70
-44 85 -24 17 -65 8 -85 -18z m93 -16 c48 -68 -25 -158 -79 -98 -13 15 -16 30
-12 61 3 23 11 46 19 50 24 15 57 9 72 -13z"/>
<path d="M5073 6893 l-33 -4 0 -85 c0 -49 4 -84 10 -84 6 0 10 29 10 68 0 82
7 94 51 90 l34 -3 3 -77 c4 -100 22 -102 22 -4 0 78 -14 108 -48 104 -9 0 -32
-3 -49 -5z"/>
<path d="M710 6805 c0 -106 18 -113 22 -7 l3 77 43 3 42 3 0 -75 c0 -46 4 -76
10 -76 7 0 10 29 8 78 l-3 77 -62 3 -63 3 0 -86z"/>
<path d="M1250 5846 l0 -133 47 -7 c57 -8 86 9 103 58 8 26 8 45 0 76 -14 50
-46 70 -90 53 -36 -14 -40 -10 -40 44 0 24 -4 43 -10 43 -6 0 -10 -51 -10
-134z m120 15 c17 -33 12 -99 -10 -121 -24 -24 -75 -27 -84 -4 -11 30 -7 132
7 137 31 13 77 6 87 -12z"/>
<path d="M2300 5844 c0 -121 2 -135 17 -132 14 2 16 15 14 77 -3 82 3 91 57
91 26 0 34 -5 43 -27 14 -37 5 -104 -17 -120 -10 -7 -28 -13 -42 -13 -13 0
-20 -4 -17 -10 12 -19 54 -10 80 17 33 36 36 122 5 153 -22 22 -60 26 -91 10
-18 -10 -19 -7 -19 40 0 38 -4 50 -15 50 -13 0 -15 -22 -15 -136z"/>
<path d="M754 5946 c-10 -8 -16 -18 -11 -22 4 -4 13 -2 19 4 17 17 73 15 88
-3 21 -25 -3 -83 -60 -147 -27 -31 -50 -60 -50 -66 0 -13 147 -15 155 -2 4 6
-15 10 -54 10 -34 0 -61 4 -61 8 0 4 16 24 36 43 66 63 82 126 44 167 -24 26
-76 29 -106 8z"/>
<path d="M1130 5948 c-24 -29 -78 -105 -89 -126 -18 -34 -5 -45 50 -40 l49 5
0 -44 c0 -31 4 -43 12 -41 8 3 12 19 10 42 -3 32 0 38 19 43 l23 6 -22 8 c-20
8 -22 15 -22 84 0 73 -8 89 -30 63z m10 -88 l0 -60 -39 0 c-50 0 -57 11 -26
40 13 12 29 35 35 51 19 46 30 34 30 -31z"/>
<path d="M1818 5949 c-25 -14 -23 -33 1 -19 11 5 33 10 50 10 24 0 32 -5 37
-24 3 -13 0 -34 -6 -46 -10 -19 -9 -21 7 -18 29 5 30 72 1 92 -25 18 -65 20
-90 5z"/>
<path d="M2868 5949 c-25 -14 -23 -33 1 -19 11 5 33 10 50 10 35 0 46 -23 35
-73 -6 -28 -5 -30 10 -18 22 18 21 74 -2 94 -21 19 -68 22 -94 6z"/>
<path d="M3063 5950 c-13 -5 -23 -14 -23 -21 0 -7 7 -8 18 -4 37 17 78 17 91
1 24 -29 4 -83 -55 -147 -30 -32 -54 -63 -54 -69 0 -6 33 -10 80 -10 47 0 80
4 80 10 0 6 -25 10 -55 10 -30 0 -55 3 -55 6 0 3 19 27 41 54 52 62 64 125 30
159 -22 22 -60 26 -98 11z"/>
<path d="M2060 5881 l0 -41 -47 0 c-39 -1 -45 -3 -30 -11 11 -6 32 -9 48 -7
28 4 29 3 29 -39 0 -24 5 -43 10 -43 6 0 10 19 10 43 l0 43 35 -4 c21 -3 35 0
35 7 0 6 -18 11 -41 11 l-42 0 6 35 c3 19 1 37 -4 40 -5 4 -9 -12 -9 -34z"/>
<path d="M1483 5893 c-29 -11 -10 -20 31 -16 38 5 46 2 55 -16 14 -26 7 -41
-19 -41 -30 0 -88 -31 -93 -49 -6 -23 8 -57 27 -64 8 -3 38 -3 67 0 l51 6 -4
79 c-3 65 -7 82 -23 94 -18 14 -67 18 -92 7z m92 -125 c-4 -18 -9 -36 -12 -40
-8 -14 -70 -8 -83 7 -18 21 29 65 70 65 30 0 31 -1 25 -32z"/>
<path d="M1670 5798 c0 -122 18 -131 22 -10 l3 87 30 3 c53 6 50 21 -4 19
l-51 -2 0 -97z"/>
<path d="M2533 5893 c-27 -10 -11 -19 35 -19 44 1 47 -1 50 -25 3 -25 -1 -28
-49 -40 -63 -16 -81 -44 -54 -85 15 -23 22 -26 53 -20 21 3 48 6 61 6 23 0 24
1 19 81 -4 65 -9 85 -23 95 -18 14 -68 17 -92 7z m89 -122 c-1 -14 -7 -30 -13
-38 -17 -20 -67 -16 -79 6 -8 16 -5 23 17 41 37 29 79 24 75 -9z"/>
<path d="M2729 5895 c-1 0 -2 -44 -4 -97 -1 -75 1 -98 11 -98 10 0 14 24 16
88 l3 87 33 3 c49 5 38 21 -13 19 -25 -1 -45 -2 -46 -2z"/>
<path d="M1840 5830 c0 -5 11 -10 25 -10 14 0 25 5 25 10 0 6 -11 10 -25 10
-14 0 -25 -4 -25 -10z"/>
<path d="M2895 5830 c3 -5 14 -10 24 -10 29 0 54 -35 47 -64 -9 -37 -50 -45
-108 -21 -28 11 -21 -11 7 -23 63 -29 125 3 125 64 0 22 -8 33 -31 47 -33 18
-74 23 -64 7z"/>
<path d="M1900 5811 c0 -6 5 -13 10 -16 17 -11 11 -54 -9 -65 -26 -13 -67 -13
-93 1 -16 9 -19 8 -16 -3 3 -7 21 -17 41 -22 54 -14 107 12 107 53 0 16 -3 36
-6 45 -7 17 -34 22 -34 7z"/>
<path d="M957 5753 c-13 -12 -7 -43 8 -43 9 0 15 9 15 25 0 24 -10 32 -23 18z"/>
<path d="M2200 5735 c0 -19 5 -25 21 -25 15 0 19 4 15 16 -3 9 -6 20 -6 25 0
5 -7 9 -15 9 -9 0 -15 -9 -15 -25z"/>
<path d="M1290 4536 c0 -57 -3 -118 -6 -136 -6 -27 -4 -31 10 -29 15 3 18 17
18 89 0 157 -2 180 -12 180 -6 0 -10 -41 -10 -104z"/>
<path d="M1837 4634 c-13 -13 -7 -24 14 -24 11 0 19 5 17 12 -5 14 -22 21 -31
12z"/>
<path d="M888 4609 c-14 -6 -29 -20 -32 -32 -11 -44 4 -64 65 -91 67 -29 78
-45 55 -81 -18 -28 -45 -31 -95 -14 -34 12 -56 4 -31 -11 26 -16 83 -21 110
-10 32 13 55 58 46 88 -4 12 -28 29 -61 42 -70 28 -82 42 -66 77 11 24 15 25
69 20 51 -5 55 -4 38 9 -22 16 -58 17 -98 3z"/>
<path d="M1940 4591 c0 -16 -6 -32 -12 -34 -10 -4 -10 -6 0 -6 8 -1 12 -24 12
-78 0 -43 4 -84 8 -90 11 -17 72 -29 72 -14 0 6 -8 11 -18 11 -32 0 -42 22
-42 92 0 65 1 68 24 68 14 0 28 5 31 10 4 6 -7 10 -24 10 -28 0 -31 3 -31 30
0 17 -4 30 -10 30 -5 0 -10 -13 -10 -29z"/>
<path d="M1066 4552 c-10 -17 10 -173 24 -182 19 -12 41 -12 60 0 12 8 11 10
-7 10 -49 0 -53 7 -53 96 0 74 -8 101 -24 76z"/>
<path d="M1190 4488 c0 -40 -4 -80 -10 -88 -8 -14 3 -29 23 -30 11 0 8 178 -3
185 -6 4 -10 -21 -10 -67z"/>
<path d="M1341 4551 c-11 -7 -4 -10 24 -13 32 -2 40 -8 48 -31 11 -34 2 -91
-19 -112 -9 -8 -27 -15 -40 -15 -14 0 -22 -4 -19 -10 12 -19 47 -10 77 20 28
29 30 35 26 87 -3 39 -10 60 -23 69 -22 16 -54 18 -74 5z"/>
<path d="M1510 4559 c-6 -61 0 -194 8 -197 16 -5 21 177 5 190 -7 6 -13 9 -13
7z"/>
<path d="M1560 4550 c-11 -7 -5 -10 23 -10 l37 0 0 -84 c0 -47 4 -87 9 -90 5
-3 11 34 13 82 4 71 2 89 -11 99 -19 15 -51 16 -71 3z"/>
<path d="M1677 4548 c-15 -11 -12 -13 20 -13 l38 0 3 -88 c2 -53 7 -85 12 -82
13 8 13 151 0 176 -12 22 -48 25 -73 7z"/>
<path d="M1840 4460 c0 -60 4 -100 10 -100 6 0 10 40 10 100 0 60 -4 100 -10
100 -6 0 -10 -40 -10 -100z"/>
<path d="M1652 2943 c3 -124 5 -138 21 -141 16 -3 17 -1 8 16 -6 12 -11 74
-11 141 0 76 -4 121 -10 121 -7 0 -10 -48 -8 -137z"/>
<path d="M3010 3077 c0 -1 -9 -34 -20 -72 -40 -137 -61 -218 -57 -221 2 -2 16
37 31 88 15 51 36 117 47 146 22 61 22 62 9 62 -5 0 -10 -1 -10 -3z"/>
<path d="M1760 3030 c0 -22 -5 -30 -17 -30 -17 -1 -17 -1 0 -11 14 -8 17 -24
17 -89 0 -68 3 -81 19 -90 11 -5 27 -10 35 -10 24 0 19 18 -6 22 -27 4 -40 48
-36 116 3 44 5 47 33 51 l30 4 -30 6 c-25 6 -30 11 -27 34 1 15 -2 27 -8 27
-5 0 -10 -13 -10 -30z"/>
<path d="M2153 3050 c-35 -14 -28 -18 27 -12 47 4 50 3 60 -24 15 -38 -2 -75
-64 -144 l-50 -55 29 -6 c48 -11 113 -10 120 1 4 6 -15 10 -49 10 -57 0 -71
11 -37 29 28 16 81 101 81 132 0 54 -63 92 -117 69z"/>
<path d="M2350 3049 c-18 -6 -9 -8 32 -5 32 3 60 1 63 -4 3 -5 -3 -23 -14 -42
-23 -40 -37 -87 -46 -152 -5 -38 -4 -47 7 -44 7 3 16 29 20 63 4 32 21 87 38
123 16 35 30 66 30 68 0 8 -105 2 -130 -7z"/>
<path d="M2553 3050 c-13 -5 -23 -14 -23 -20 0 -7 6 -8 19 0 11 5 34 10 51 10
24 0 33 -6 40 -25 14 -36 -9 -86 -68 -149 l-47 -51 30 -6 c48 -11 113 -10 120
1 4 6 -15 10 -49 10 -57 0 -71 11 -37 29 28 16 81 101 81 131 0 61 -56 94
-117 70z"/>
<path d="M2753 3045 c-28 -20 -40 -78 -23 -110 14 -27 66 -43 83 -26 8 8 1 11
-26 11 -31 0 -38 4 -43 26 -4 14 -2 40 3 57 7 26 14 33 39 35 40 4 54 -14 63
-83 7 -47 4 -63 -12 -93 -11 -20 -25 -40 -31 -44 -16 -11 -56 -10 -56 2 0 6
-5 10 -11 10 -8 0 -8 -5 1 -15 22 -27 65 -18 99 20 27 32 31 43 31 96 0 69
-19 114 -52 123 -34 9 -41 8 -65 -9z"/>
<path d="M3085 3035 c-27 -26 -33 -72 -15 -106 8 -14 21 -19 53 -18 42 2 42 2
8 8 -45 8 -57 29 -45 78 8 34 13 38 44 41 47 5 60 -16 60 -99 0 -88 -24 -123
-81 -117 -46 4 -52 -8 -9 -17 63 -14 111 43 111 133 1 69 -12 99 -47 112 -38
15 -53 12 -79 -15z"/>
<path d="M3281 3034 c-23 -29 -27 -74 -11 -105 8 -14 21 -19 55 -19 24 0 46 4
49 8 3 5 -8 7 -23 4 -61 -9 -87 32 -59 93 9 19 19 25 45 25 41 0 53 -24 53
-109 0 -80 -26 -114 -81 -109 -27 2 -39 0 -39 -9 0 -23 66 -15 98 12 62 52 60
181 -3 227 -22 17 -64 8 -84 -18z"/>
<path d="M3497 3046 c-54 -41 -46 -205 12 -235 49 -27 93 13 107 96 16 103
-55 187 -119 139z m83 -36 c16 -30 12 -142 -6 -168 -31 -44 -77 -16 -90 56 -8
39 13 122 34 139 18 15 46 2 62 -27z"/>
<path d="M990 2990 c-12 -8 -9 -10 13 -10 16 0 26 4 22 10 -8 12 -16 12 -35 0z"/>
<path d="M1097 2993 c-9 -2 -24 -17 -32 -33 -37 -72 6 -161 77 -160 20 1 19 2
-8 14 -17 8 -39 24 -48 37 -19 28 -21 87 -2 112 19 24 82 23 96 -2 18 -34 11
-41 -36 -41 -27 0 -43 -4 -39 -10 5 -8 93 -3 104 6 2 2 -2 17 -9 34 -18 44
-49 57 -103 43z"/>
<path d="M1269 2979 c-29 -29 -20 -51 34 -79 48 -26 60 -53 35 -78 -15 -15
-54 -16 -63 -2 -3 6 -12 10 -18 10 -7 0 -3 -7 7 -15 43 -33 106 -5 106 46 0
25 -7 32 -47 52 -34 15 -48 28 -48 42 0 17 8 21 50 25 35 4 45 7 32 13 -33 13
-66 8 -88 -14z"/>
<path d="M1430 2915 c0 -79 2 -86 25 -101 20 -13 31 -14 48 -6 l22 11 -22 0
c-50 2 -53 8 -53 97 0 49 -4 84 -10 84 -6 0 -10 -35 -10 -85z"/>
<path d="M1549 2920 c-1 -44 -2 -85 -3 -92 -1 -6 5 -13 12 -15 9 -4 12 19 12
91 0 118 -19 132 -21 16z"/>
<path d="M930 2900 c0 -53 4 -90 10 -90 6 0 10 37 10 90 0 53 -4 90 -10 90 -6
0 -10 -37 -10 -90z"/>
<path d="M1960 2970 c0 -11 7 -20 15 -20 8 0 15 9 15 20 0 11 -7 20 -15 20 -8
0 -15 -9 -15 -20z"/>
<path d="M1966 2853 c-12 -12 -6 -43 9 -43 8 0 15 9 15 19 0 21 -13 34 -24 24z"/>
<path d="M1175 2820 c-3 -5 -1 -10 4 -10 6 0 11 5 11 10 0 6 -2 10 -4 10 -3 0
-8 -4 -11 -10z"/>
<path d="M1652 1143 c3 -126 5 -138 22 -141 15 -3 17 -1 10 14 -5 11 -10 74
-12 142 -2 70 -7 122 -13 122 -6 0 -8 -53 -7 -137z"/>
<path d="M1759 1253 c-1 -5 0 -16 0 -26 1 -9 -5 -20 -13 -23 -14 -5 -14 -8 -1
-27 10 -14 15 -45 15 -87 0 -73 10 -90 52 -90 37 0 36 16 -2 24 l-30 6 0 80
c0 80 0 80 24 74 13 -3 27 -1 30 5 4 7 -1 11 -13 11 -36 0 -48 10 -43 36 2 14
0 24 -7 24 -6 0 -12 -3 -12 -7z"/>
<path d="M2153 1248 c-13 -6 -23 -15 -23 -20 0 -11 17 -10 25 2 9 14 58 13 73
-2 29 -29 -6 -117 -72 -177 -44 -41 -35 -51 49 -51 43 0 75 4 75 10 0 6 -22
10 -50 10 -53 0 -61 8 -32 36 9 10 29 33 45 52 67 85 3 185 -90 140z"/>
<path d="M2430 1250 c0 -5 24 -10 53 -10 61 0 73 -7 53 -29 -18 -20 -56 -144
-56 -182 0 -17 5 -29 13 -29 8 0 17 26 24 71 6 38 23 93 37 121 14 27 26 54
26 59 0 5 -34 9 -75 9 -43 0 -75 -4 -75 -10z"/>
<path d="M2640 1198 l0 -63 47 0 c44 0 48 -2 56 -32 18 -62 -36 -103 -95 -72
-27 14 -38 1 -14 -17 43 -31 131 -1 137 46 8 70 -14 100 -72 100 l-40 0 3 38
c3 37 3 37 51 40 68 4 58 22 -13 22 l-60 0 0 -62z"/>
<path d="M2867 1240 c-35 -28 -49 -81 -38 -150 14 -87 70 -116 126 -64 24 22
27 31 22 65 -3 22 -11 46 -17 54 -16 20 -60 19 -88 -1 -21 -14 -22 -14 -22 10
0 36 20 75 42 82 10 3 32 2 49 -1 24 -6 30 -4 27 6 -8 23 -71 23 -101 -1z m77
-116 c11 -29 6 -82 -10 -94 -11 -10 -23 -11 -42 -4 -33 12 -53 73 -32 98 17
21 76 21 84 0z"/>
<path d="M3046 1252 c-2 -4 -6 -32 -7 -62 l-3 -54 47 3 c43 2 48 0 57 -24 12
-31 4 -69 -17 -86 -11 -10 -24 -10 -56 -2 -48 13 -61 8 -33 -13 43 -31 131 -1
137 46 8 70 -14 100 -72 100 l-40 0 3 38 c3 37 3 37 51 40 26 2 47 7 47 13 0
11 -107 12 -114 1z"/>
<path d="M3267 1240 c-75 -59 -48 -240 36 -240 13 0 37 12 52 26 24 22 27 31
22 65 -7 54 -24 72 -61 66 -17 -2 -39 -7 -48 -12 -21 -9 -25 20 -7 59 13 28
39 37 82 29 23 -5 29 -3 25 8 -8 23 -71 23 -101 -1z m77 -116 c11 -29 6 -81
-9 -94 -45 -37 -114 57 -73 98 18 18 75 15 82 -4z"/>
<path d="M3446 1252 c-2 -4 -5 -32 -7 -62 -2 -43 1 -54 12 -51 23 6 73 1 83
-9 16 -16 11 -79 -7 -97 -14 -15 -23 -16 -59 -6 -24 6 -45 9 -48 6 -11 -11 36
-33 70 -33 40 0 78 31 81 65 7 68 -14 95 -72 95 l-40 0 3 38 c3 37 3 37 51 40
26 2 47 7 47 13 0 11 -107 12 -114 1z"/>
<path d="M3658 1231 c-32 -28 -33 -32 -33 -104 0 -66 3 -79 24 -101 14 -14 34
-26 46 -26 25 0 61 24 75 51 14 25 -4 95 -26 103 -26 10 -61 7 -72 -6 -8 -10
-2 -13 26 -13 32 0 37 -4 46 -33 18 -62 -22 -102 -69 -69 -26 20 -38 117 -19
163 14 32 17 34 64 34 40 0 48 3 44 15 -11 26 -70 18 -106 -14z"/>
<path d="M3839 1228 c-1 -18 -3 -48 -5 -67 -3 -28 -1 -32 14 -26 19 8 70 8 83
-1 5 -3 9 -25 9 -50 0 -38 -4 -46 -25 -56 -20 -9 -34 -9 -59 0 -45 17 -52 15
-31 -8 27 -29 89 -27 120 5 29 28 33 79 9 113 -11 16 -25 22 -55 22 l-40 0 3
38 c3 37 3 37 51 40 68 4 58 22 -13 22 l-60 0 -1 -32z"/>
<path d="M4058 1231 c-32 -28 -33 -32 -33 -104 0 -66 3 -79 24 -101 34 -36 72
-34 106 6 18 21 25 38 21 52 -3 12 -6 26 -6 33 0 35 -75 59 -98 31 -8 -10 -2
-13 26 -13 32 0 37 -4 46 -33 18 -62 -22 -102 -69 -69 -27 20 -38 118 -19 164
15 34 16 35 65 31 38 -2 48 0 44 10 -3 8 -5 16 -5 18 0 2 -16 4 -35 4 -24 0
-44 -9 -67 -29z"/>
<path d="M4235 1199 c-8 -68 -5 -75 23 -60 11 6 31 7 48 2 26 -7 29 -12 32
-54 3 -42 0 -48 -23 -59 -20 -9 -33 -9 -59 0 -45 17 -52 15 -31 -8 27 -30 89
-27 122 6 22 22 25 32 20 71 -6 52 -17 63 -70 63 -38 0 -38 0 -35 38 3 37 3
37 51 40 68 4 58 22 -12 22 l-59 0 -7 -61z"/>
<path d="M4473 1250 c-38 -16 -58 -58 -58 -126 0 -75 25 -117 72 -122 47 -5
78 27 78 81 0 24 -6 51 -14 60 -15 18 -81 24 -81 7 0 -5 10 -10 23 -10 33 0
47 -18 47 -60 0 -59 -40 -80 -80 -40 -16 16 -20 33 -20 80 0 97 32 134 95 110
23 -9 26 -8 23 7 -4 21 -50 28 -85 13z"/>
<path d="M4637 1253 c-4 -3 -7 -33 -7 -65 0 -54 1 -58 18 -49 29 16 75 -1 82
-30 16 -64 -24 -103 -83 -81 -37 14 -50 6 -23 -14 30 -22 81 -17 113 10 22 20
27 31 26 66 -3 56 -16 70 -69 70 -47 0 -51 7 -38 58 5 18 13 22 50 22 24 0 44
5 44 10 0 11 -103 14 -113 3z"/>
<path d="M4873 1250 c-38 -16 -58 -58 -58 -126 0 -48 5 -69 21 -91 29 -39 75
-43 110 -8 22 22 26 33 21 66 -3 22 -11 46 -17 54 -14 17 -76 20 -85 5 -4 -6
6 -10 22 -10 38 0 53 -17 53 -60 0 -59 -40 -80 -80 -40 -16 16 -20 33 -20 80
0 99 30 135 94 111 24 -10 27 -9 24 6 -4 21 -50 28 -85 13z"/>
<path d="M5037 1253 c-4 -3 -7 -32 -7 -64 0 -56 1 -58 22 -50 54 20 95 -15 83
-70 -9 -40 -45 -57 -88 -41 -37 14 -50 6 -23 -14 34 -24 84 -18 118 16 27 27
29 35 23 68 -10 52 -21 62 -71 62 -47 0 -51 7 -38 58 5 18 13 22 50 22 24 0
44 5 44 10 0 11 -103 14 -113 3z"/>
<path d="M5262 1250 c-61 -25 -71 -193 -14 -236 34 -26 92 -9 111 33 15 32 4
91 -20 103 -23 13 -66 13 -74 0 -4 -6 7 -10 25 -10 24 0 33 -6 41 -27 25 -66
-32 -124 -73 -73 -27 34 -26 152 3 181 17 17 28 19 61 14 32 -6 39 -4 36 6 -5
17 -64 22 -96 9z"/>
<path d="M5410 1250 c0 -5 25 -10 55 -10 30 0 55 -2 55 -5 0 -3 -8 -22 -19
-43 -16 -31 -41 -142 -41 -180 0 -7 7 -12 15 -12 9 0 15 10 15 26 0 41 30 146
51 180 30 50 26 54 -56 54 -43 0 -75 -4 -75 -10z"/>
<path d="M985 1190 c-17 -7 -15 -9 13 -9 17 -1 32 4 32 9 0 12 -17 12 -45 0z"/>
<path d="M1097 1193 c-9 -2 -24 -17 -32 -33 -38 -74 2 -160 75 -160 22 0 43 6
51 16 11 13 9 14 -14 9 -38 -10 -74 2 -88 28 -15 26 -13 96 3 114 17 21 76 16
88 -7 16 -30 4 -40 -46 -40 -26 0 -44 -5 -44 -11 0 -8 18 -9 58 -4 31 4 59 9
62 12 2 2 -4 21 -15 41 -20 37 -50 48 -98 35z"/>
<path d="M1270 1180 c-30 -30 -22 -51 33 -80 40 -21 47 -29 45 -50 -3 -22 -8
-25 -38 -24 -19 0 -44 4 -55 9 -20 8 -20 8 -1 -13 32 -37 111 -24 116 18 5 39
-3 51 -51 75 -35 18 -49 31 -47 43 3 13 14 17 51 16 56 0 59 19 4 24 -26 2
-42 -3 -57 -18z"/>
<path d="M1424 1187 c-2 -7 -1 -49 3 -92 7 -74 10 -80 34 -89 15 -5 35 -6 45
-1 17 6 15 9 -10 16 -40 11 -46 24 -46 107 0 43 -4 72 -10 72 -6 0 -13 -6 -16
-13z"/>
<path d="M1547 1193 c-3 -5 -3 -28 -2 -53 2 -25 0 -62 -5 -82 -7 -34 0 -48 26
-48 2 0 4 43 4 95 0 83 -8 113 -23 88z"/>
<path d="M1960 1175 c0 -16 6 -25 15 -25 21 0 31 30 14 41 -23 14 -29 11 -29
-16z"/>
<path d="M924 1174 c3 -9 6 -52 6 -96 0 -59 3 -79 13 -76 8 3 13 33 14 96 2
87 1 92 -19 92 -14 0 -18 -5 -14 -16z"/>
<path d="M1960 1036 c0 -29 10 -38 29 -27 17 11 5 51 -15 51 -8 0 -14 -10 -14
-24z"/>
<path d="M2344 1046 c-8 -22 3 -49 19 -43 6 2 12 14 12 27 0 27 -22 39 -31 16z"/>
</g>
</svg>
